<?xml version="1.0" standalone="no"?>
<!DOCTYPE svg PUBLIC "-//W3C//DTD SVG 20010904//EN"
 "http://www.w3.org/TR/2001/REC-SVG-20010904/DTD/svg10.dtd">
<svg version="1.0" xmlns="http://www.w3.org/2000/svg"
 width="512.000000pt" height="512.000000pt" viewBox="0 0 512.000000 512.000000"
 preserveAspectRatio="xMidYMid meet">
<metadata>
Created by potrace 1.11, written by Peter Selinger 2001-2013
</metadata>
<g transform="translate(0.000000,512.000000) scale(0.100000,-0.100000)"
fill="#000000" stroke="none">
<path d="M4575 5104 c-49 -7 -115 -15 -145 -18 -30 -3 -64 -8 -75 -10 -11 -2
-49 -7 -85 -11 -36 -4 -72 -9 -80 -10 -8 -2 -42 -6 -75 -9 -133 -15 -196 -51
-239 -137 -82 -165 42 -349 228 -337 49 3 72 -4 48 -14 -5 -1 -32 -30 -62 -63
-102 -115 -286 -299 -430 -430 -144 -131 -409 -335 -601 -463 -131 -87 -316
-202 -325 -202 -2 0 -23 -12 -46 -26 -127 -81 -565 -288 -778 -369 -200 -76
-630 -211 -733 -231 -12 -2 -31 -6 -42 -8 -119 -28 -179 -40 -290 -61 -71 -13
-150 -27 -175 -30 -25 -3 -56 -8 -70 -10 -83 -13 -134 -18 -289 -30 -132 -10
-220 -100 -226 -230 -6 -133 91 -233 230 -238 48 -1 192 9 245 17 14 3 48 7
75 10 68 8 98 13 180 26 39 7 84 14 100 17 17 2 82 16 145 30 63 13 128 27
144 30 71 12 441 118 619 178 190 63 408 147 535 206 35 16 65 29 68 29 9 0
269 129 389 193 131 70 342 196 467 278 70 46 93 79 84 120 -5 21 4 32 76 84
46 32 90 58 98 57 8 -1 32 -4 52 -8 34 -6 44 -1 105 47 38 29 73 57 78 63 6 6
33 29 60 51 28 22 55 44 61 50 6 5 44 39 85 75 91 80 363 351 447 445 45 51
62 64 62 50 0 -33 45 -118 76 -145 93 -82 246 -76 327 11 63 70 62 59 65 464
3 417 1 431 -66 500 -68 70 -143 84 -317 59z"/>
<path d="M3646 3183 c-14 -7 -28 -23 -32 -35 -4 -12 -7 -692 -7 -1510 l0
-1488 -283 0 c-156 0 -285 3 -285 8 -1 4 -2 481 -3 1059 l-1 1052 -22 23 -22
22 -431 0 -430 0 -23 -22 -22 -23 -1 -1047 c-1 -576 -2 -1053 -3 -1059 -1 -10
-65 -13 -285 -13 l-284 0 0 853 c0 625 -3 859 -11 875 -6 12 -25 25 -41 29
-17 5 -215 8 -442 7 l-411 0 -23 -27 -23 -27 1 -852 0 -853 -262 -5 c-262 -5
-262 -5 -281 -29 -23 -28 -20 -74 6 -100 14 -15 241 -16 2529 -19 2385 -2
2515 -1 2535 15 31 26 37 73 13 103 l-20 25 -262 5 -262 5 0 1489 c0 1027 -3
1496 -10 1512 -6 13 -20 27 -32 31 -12 4 -207 7 -433 8 -317 0 -419 -2 -437
-12z"/>
</g>
</svg>
